<svg width="97" height="25" viewBox="0 0 97 25" fill="none" xmlns="http://www.w3.org/2000/svg">
<path d="M90.2642 19.2801C88.9762 19.2801 87.8469 18.9814 86.8762 18.3841C85.9055 17.7867 85.1495 16.9747 84.6082 15.9481C84.0855 14.9027 83.8242 13.7267 83.8242 12.4201C83.8242 10.9641 84.0855 9.72273 84.6082 8.69606C85.1495 7.66939 85.8869 6.89473 86.8202 6.37206C87.7535 5.83072 88.8082 5.56006 89.9842 5.56006C91.1415 5.56006 92.1869 5.79339 93.1202 6.26006C94.0535 6.72673 94.7909 7.38939 95.3322 8.24806C95.8735 9.08806 96.1442 10.0587 96.1442 11.1601C96.1442 11.5147 96.1256 11.9161 96.0882 12.3641L96.0322 12.9241H87.6042C87.6042 14.6974 87.8749 15.9947 88.4162 16.8161C88.9575 17.6187 89.7136 18.0201 90.6842 18.0201C91.5802 18.0201 92.3269 17.8241 92.9242 17.4321C93.5402 17.0214 94.1282 16.4427 94.6882 15.6961L95.5562 16.3401C95.0149 17.1801 94.3335 17.8801 93.5122 18.4401C92.7095 19.0001 91.6269 19.2801 90.2642 19.2801ZM92.3642 11.6641C92.3642 9.90939 92.1589 8.66806 91.7482 7.94006C91.3375 7.19339 90.7495 6.82006 89.9842 6.82006C89.2749 6.82006 88.6962 7.20273 88.2482 7.96806C87.8189 8.71473 87.6042 9.94673 87.6042 11.6641H92.3642Z" fill="#F14A75"/>
<path d="M79.7781 19.28C78.4901 19.28 77.4914 18.9347 76.7821 18.244C76.0728 17.5347 75.7181 16.5173 75.7181 15.192V7.10001H74.0381V5.84001H75.7181V3.32001L77.1181 1.64001H79.3581V5.84001H82.4381V7.10001H79.3581V15.36C79.3581 16.368 79.4794 17.068 79.7221 17.46C79.9648 17.8333 80.3288 18.02 80.8141 18.02C81.3368 18.02 81.8594 17.8987 82.3821 17.656C82.5874 17.544 82.8021 17.4133 83.0261 17.264L83.4181 18.048C83.1754 18.2533 82.8861 18.4587 82.5501 18.664C81.7661 19.0747 80.8421 19.28 79.7781 19.28Z" fill="#F14A75"/>
<path d="M65.6912 19.2801C64.1792 19.2801 63.0032 18.9441 62.1632 18.2721C61.3418 17.5814 60.9312 16.6574 60.9312 15.5001C60.9312 14.5667 61.1458 13.7921 61.5752 13.1761C62.0232 12.5601 62.7978 12.0934 63.8992 11.7761C65.0005 11.4587 66.5311 11.3001 68.4911 11.3001H68.9112C68.9112 9.67606 68.6872 8.52806 68.2392 7.85606C67.7912 7.16539 67.1285 6.82006 66.2512 6.82006C65.5232 6.82006 64.9258 6.99739 64.4592 7.35206C63.9925 7.70672 63.6565 8.36939 63.4512 9.34006H61.9112C61.9112 8.70539 61.9485 8.16406 62.0232 7.71606C62.1165 7.26806 62.3125 6.87606 62.6112 6.54006C63.1898 5.88672 64.5898 5.56006 66.8111 5.56006C68.6778 5.56006 70.0965 6.05473 71.0672 7.04406C72.0565 8.01473 72.5512 9.48006 72.5512 11.4401V19.0001H70.1712L69.1912 17.7401H69.0512C68.8832 18.0014 68.6218 18.2627 68.2672 18.5241C67.6325 19.0281 66.7738 19.2801 65.6912 19.2801ZM66.5312 17.8801C66.9232 17.8801 67.2592 17.8054 67.5392 17.6561C67.8192 17.4881 68.0898 17.2641 68.3512 16.9841C68.5938 16.7227 68.7805 16.4147 68.9112 16.0601V12.5601H68.4911C67.1658 12.5601 66.2045 12.8027 65.6072 13.2881C65.0098 13.7547 64.7112 14.4921 64.7112 15.5001C64.7112 16.2654 64.8698 16.8534 65.1871 17.2641C65.5045 17.6747 65.9525 17.8801 66.5312 17.8801Z" fill="#F14A75"/>
<path d="M39.7867 9.48006C39.7867 8.52806 39.656 7.82806 39.3947 7.38006C39.152 6.91339 38.6387 6.68006 37.8547 6.68006H37.5747V5.84006H40.3467C41.56 5.84006 42.3534 6.19472 42.7267 6.90406H42.8387C43.8654 6.00806 45.0414 5.56006 46.3667 5.56006C47.2814 5.56006 48.0747 5.73739 48.7467 6.09206C49.4374 6.42806 49.932 6.78273 50.2307 7.15606C50.6787 6.67073 51.2107 6.28806 51.8267 6.00806C52.4427 5.70939 53.236 5.56006 54.2067 5.56006C57.4734 5.56006 59.1067 7.27739 59.1067 10.7121V19.0001H55.4667V10.6841C55.4667 9.39606 55.2614 8.45339 54.8507 7.85606C54.44 7.25873 53.8987 6.96006 53.2267 6.96006C52.7227 6.96006 52.256 7.06273 51.8267 7.26806C51.3974 7.45473 51.0614 7.70673 50.8187 8.02406C50.856 8.09873 50.9307 8.30406 51.0427 8.64006C51.192 9.20006 51.2667 9.89073 51.2667 10.7121V19.0001H47.6267V10.6841C47.6267 9.39606 47.4214 8.45339 47.0107 7.85606C46.6 7.25873 46.0587 6.96006 45.3867 6.96006C44.9947 6.96006 44.584 7.08139 44.1547 7.32406C43.744 7.54806 43.436 7.80006 43.2307 8.08006L43.3147 8.47206C43.3894 8.69606 43.4267 9.06006 43.4267 9.56406V19.0001H39.7867V9.48006Z" fill="#F14A75"/>
<path d="M31.1939 19.28C30.1859 19.28 29.3646 19.028 28.7299 18.524C28.4126 18.3 28.1606 18.0387 27.9739 17.74H27.8339L26.8539 19H24.4739V4.16002C24.4739 3.20802 24.3432 2.50802 24.0819 2.06002C23.8206 1.59335 23.2979 1.36002 22.5139 1.36002H22.2339V0.52002H25.5939C26.2659 0.52002 26.7792 0.63202 27.1339 0.85602C27.4886 1.08002 27.7406 1.45335 27.8899 1.97602C28.0392 2.48002 28.1139 3.20802 28.1139 4.16002V6.40002C28.3566 6.25069 28.6179 6.11069 28.8979 5.98002C29.6632 5.70002 30.3819 5.56002 31.0539 5.56002C32.9952 5.56002 34.4792 6.20402 35.5059 7.49202C36.5512 8.76135 37.0739 10.404 37.0739 12.42C37.0739 14.436 36.5606 16.088 35.5339 17.376C34.5259 18.6454 33.0792 19.28 31.1939 19.28ZM30.6339 18.02C31.5486 18.02 32.2206 17.516 32.6499 16.508C33.0792 15.5 33.2939 14.1374 33.2939 12.42C33.2939 8.68669 32.3606 6.82002 30.4939 6.82002C29.9526 6.82002 29.3832 6.96002 28.7859 7.24002C28.5246 7.38935 28.3006 7.52935 28.1139 7.66002V16.2C28.2819 16.5734 28.4872 16.8814 28.7299 17.124C29.2899 17.7214 29.9246 18.02 30.6339 18.02Z" fill="#F14A75"/>
<path d="M15.6331 19.2801C14.2704 19.2801 13.0758 18.9814 12.0491 18.3841C11.0411 17.7681 10.2664 16.9467 9.72509 15.9201C9.18375 14.8747 8.91309 13.7081 8.91309 12.4201C8.91309 11.1321 9.18375 9.97472 9.72509 8.94806C10.2664 7.90272 11.0411 7.08139 12.0491 6.48406C13.0758 5.86806 14.2704 5.56006 15.6331 5.56006C16.9958 5.56006 18.1811 5.86806 19.1891 6.48406C20.2158 7.08139 20.9998 7.90272 21.5411 8.94806C22.0824 9.97472 22.3531 11.1321 22.3531 12.4201C22.3531 13.7081 22.0824 14.8747 21.5411 15.9201C20.9998 16.9467 20.2158 17.7681 19.1891 18.3841C18.1811 18.9814 16.9958 19.2801 15.6331 19.2801ZM15.6331 18.0201C16.5851 18.0201 17.3131 17.5067 17.8171 16.4801C18.3211 15.4534 18.5731 14.1001 18.5731 12.4201C18.5731 10.7401 18.3211 9.38673 17.8171 8.36006C17.3131 7.33339 16.5851 6.82006 15.6331 6.82006C14.6811 6.82006 13.9531 7.33339 13.4491 8.36006C12.9451 9.38673 12.6931 10.7401 12.6931 12.4201C12.6931 14.1001 12.9451 15.4534 13.4491 16.4801C13.9531 17.5067 14.6811 18.0201 15.6331 18.0201Z" fill="#F14A75"/>
<path d="M5.03205 4.32796C4.36005 4.32796 3.83738 4.12262 3.46405 3.71196C3.10938 3.30129 2.93205 2.79729 2.93205 2.19996C2.93205 1.71462 3.07205 1.33196 3.35205 1.05196C3.65071 0.771958 4.02405 0.631958 4.47205 0.631958C5.14405 0.631958 5.65738 0.837292 6.01205 1.24796C6.38538 1.65862 6.57205 2.16262 6.57205 2.75996C6.57205 3.24529 6.42271 3.62796 6.12405 3.90796C5.84405 4.18796 5.48005 4.32796 5.03205 4.32796ZM0.748047 23.62C1.62538 23.452 2.25071 22.9853 2.62405 22.22C3.01605 21.4546 3.21205 20.148 3.21205 18.3V9.47996C3.21205 8.52796 3.08138 7.82796 2.82005 7.37996C2.55871 6.91329 2.03605 6.67996 1.25205 6.67996H0.972047V5.83996H4.33205C5.00405 5.83996 5.51738 5.95196 5.87205 6.17596C6.22671 6.39996 6.47871 6.77329 6.62805 7.29596C6.77738 7.79996 6.85205 8.52796 6.85205 9.47996V18.3C6.85205 19.868 6.65605 21.0813 6.26405 21.94C5.89071 22.7986 5.26538 23.4053 4.38805 23.76C3.52938 24.1333 2.31605 24.32 0.748047 24.32V23.62Z" fill="#F14A75"/>
</svg>
