<svg width="180" height="180" viewBox="0 0 180 180" fill="none" xmlns="http://www.w3.org/2000/svg">
<rect width="180" height="180" rx="90" fill="#F14A75"/>
<path d="M97.0249 40.8657C92.9726 40.8657 89.8208 39.6275 87.5695 37.1511C85.4308 34.6747 84.3614 31.6355 84.3614 28.0334C84.3614 25.1067 85.2057 22.7992 86.8941 21.1107C88.6951 19.4222 90.9464 18.578 93.648 18.578C97.7003 18.578 100.796 19.8162 102.935 22.2926C105.186 24.769 106.311 27.8083 106.311 31.4103C106.311 34.337 105.411 36.6446 103.61 38.333C101.921 40.0215 99.7264 40.8657 97.0249 40.8657ZM71.1914 157.201C76.4819 156.188 80.2528 153.374 82.5041 148.759C84.868 144.143 86.0499 136.264 86.0499 125.12V71.9335C86.0499 66.1927 85.2619 61.9715 83.686 59.27C82.1101 56.4559 78.9583 55.0488 74.2306 55.0488H72.5422V49.9834H92.8037C96.8561 49.9834 99.9516 50.6588 102.09 52.0096C104.229 53.3604 105.749 55.6116 106.649 58.7634C107.55 61.8027 108 66.1927 108 71.9335V125.12C108 134.575 106.818 141.892 104.454 147.07C102.203 152.248 98.432 155.906 93.1414 158.045C87.9635 160.296 80.6468 161.422 71.1914 161.422V157.201Z" fill="#FDE8EE"/>
</svg>
